<svg width="36" height="37" viewBox="0 0 36 37" fill="none" xmlns="http://www.w3.org/2000/svg">
<path d="M18 32.2539C18.42 32.2539 18.8085 32.0634 19.587 31.6809L25.845 28.6149C28.6155 27.2574 30 26.5779 30 25.5039V12.0039M18 32.2539C17.58 32.2539 17.1915 32.0634 16.413 31.6809L10.155 28.6149C7.3845 27.2574 6 26.5779 6 25.5039V12.0039M18 32.2539V18.7539V32.2539Z" fill="#F2E900"/>
<path d="M18 32.2539C18.42 32.2539 18.8085 32.0634 19.587 31.6809L25.845 28.6149C28.6155 27.2574 30 26.5779 30 25.5039V12.0039M18 32.2539C17.58 32.2539 17.1915 32.0634 16.413 31.6809L10.155 28.6149C7.3845 27.2574 6 26.5779 6 25.5039V12.0039M18 32.2539V18.7539" stroke="#F2E900" stroke-width="2" stroke-linecap="round" stroke-linejoin="round"/>
<path d="M16.413 5.82691C17.193 5.44441 17.5815 5.25391 18 5.25391C18.42 5.25391 18.8085 5.44441 19.587 5.82691L25.845 8.89291C28.6155 10.2504 30 10.9299 30 12.0039C30 13.0779 28.6155 13.7574 25.845 15.1149L19.587 18.1809C18.807 18.5634 18.4185 18.7539 18 18.7539C17.58 18.7539 17.1915 18.5634 16.413 18.1809L10.155 15.1149C7.3845 13.7574 6 13.0779 6 12.0039C6 10.9299 7.3845 10.2504 10.155 8.89291L16.413 5.82691Z" fill="#F2E900" stroke="#F2E900" stroke-width="1.5" stroke-linecap="round" stroke-linejoin="round"/>
</svg>
