<svg width="36" height="37" viewBox="0 0 36 37" fill="none" xmlns="http://www.w3.org/2000/svg">
<path fill-rule="evenodd" clip-rule="evenodd" d="M16.4778 3.42822H19.5944L24.0095 12.9168H12.0447L16.4778 3.42822ZM8.49611 12.9168L12.9292 3.42822H8.60411C7.97336 3.44544 7.35544 3.61026 6.79991 3.90946C6.24438 4.20866 5.76672 4.63391 5.40525 5.15108L0.732964 11.6259L0.725249 11.6362C0.4517 12.0267 0.248098 12.4617 0.123535 12.9219H8.49611V12.9168ZM0.653249 16.1311H8.42925L13.369 31.9736L0.938678 16.5168C0.837716 16.3944 0.742471 16.2674 0.653249 16.1362V16.1311ZM11.7952 16.1311H24.259L18.2675 35.4245C18.1168 35.4329 17.9658 35.4346 17.815 35.4296L11.7978 16.1337L11.7952 16.1311ZM27.625 16.1311L22.7495 31.8245L35.0615 16.5142C35.1625 16.3918 35.2577 16.2648 35.347 16.1337L27.625 16.1311ZM35.8741 12.9168C35.7501 12.4577 35.5473 12.0235 35.275 11.6337L35.2673 11.6234L30.595 5.15365C30.2335 4.63648 29.7558 4.21123 29.2003 3.91203C28.6448 3.61283 28.0268 3.44801 27.3961 3.43079V3.42822H23.143L27.5555 12.9168H35.8741Z" fill="#F2E900"/>
</svg>
