<svg width="36" height="36" viewBox="0 0 36 36" fill="none" xmlns="http://www.w3.org/2000/svg">
<path d="M18 8.24951C19.3924 8.24951 20.7277 8.80264 21.7123 9.7872C22.6969 10.7718 23.25 12.1071 23.25 13.4995C23.25 14.8919 22.6969 16.2273 21.7123 17.2118C20.7277 18.1964 19.3924 18.7495 18 18.7495C16.6076 18.7495 15.2723 18.1964 14.2877 17.2118C13.3031 16.2273 12.75 14.8919 12.75 13.4995C12.75 12.1071 13.3031 10.7718 14.2877 9.7872C15.2723 8.80264 16.6076 8.24951 18 8.24951ZM7.5 11.9995C8.34 11.9995 9.12 12.2245 9.795 12.6295C9.57 14.7745 10.2 16.9045 11.49 18.5695C10.74 20.0095 9.24 20.9995 7.5 20.9995C6.30653 20.9995 5.16193 20.5254 4.31802 19.6815C3.47411 18.8376 3 17.693 3 16.4995C3 15.306 3.47411 14.1614 4.31802 13.3175C5.16193 12.4736 6.30653 11.9995 7.5 11.9995ZM28.5 11.9995C29.6935 11.9995 30.8381 12.4736 31.682 13.3175C32.5259 14.1614 33 15.306 33 16.4995C33 17.693 32.5259 18.8376 31.682 19.6815C30.8381 20.5254 29.6935 20.9995 28.5 20.9995C26.76 20.9995 25.26 20.0095 24.51 18.5695C25.8172 16.8809 26.4242 14.7538 26.205 12.6295C26.88 12.2245 27.66 11.9995 28.5 11.9995ZM8.25 27.3745C8.25 24.2695 12.615 21.7495 18 21.7495C23.385 21.7495 27.75 24.2695 27.75 27.3745V29.9995H8.25V27.3745ZM0 29.9995V27.7495C0 25.6645 2.835 23.9095 6.675 23.3995C5.79 24.4195 5.25 25.8295 5.25 27.3745V29.9995H0ZM36 29.9995H30.75V27.3745C30.75 25.8295 30.21 24.4195 29.325 23.3995C33.165 23.9095 36 25.6645 36 27.7495V29.9995Z" fill="#F2E900"/>
</svg>
