<svg width="36" height="36" viewBox="0 0 36 36" fill="none" xmlns="http://www.w3.org/2000/svg">
<path d="M29.7436 9.91792L21.4636 1.61542C21.0252 1.16363 20.5006 0.804448 19.9209 0.559167C19.3412 0.313887 18.7181 0.1875 18.0886 0.1875C17.4591 0.1875 16.836 0.313887 16.2563 0.559167C15.6765 0.804448 15.1519 1.16363 14.7136 1.61542L6.40808 9.91792L18.0406 15.7229L29.7436 9.91792ZM32.9191 13.2704L34.5616 14.9129C35.0162 15.3496 35.3779 15.8737 35.625 16.4537C35.872 17.0336 35.9994 17.6575 35.9994 18.2879C35.9994 18.9183 35.872 19.5422 35.625 20.1222C35.3779 20.7021 35.0162 21.2262 34.5616 21.6629L21.3301 35.0249C21.0162 35.3454 20.6512 35.6115 20.2501 35.8124V19.6154L32.9191 13.2704ZM3.07958 13.2704L1.43708 14.9129C0.982469 15.3496 0.620773 15.8737 0.373699 16.4537C0.126626 17.0336 -0.000732422 17.6575 -0.000732422 18.2879C-0.000732422 18.9183 0.126626 19.5422 0.373699 20.1222C0.620773 20.7021 0.982469 21.2262 1.43708 21.6629L14.6701 35.0249C14.9851 35.3459 15.3496 35.6129 15.7501 35.8124V19.6154L3.07958 13.2704Z" fill="black"/>
</svg>
