<svg width="36" height="36" viewBox="0 0 36 36" fill="none" xmlns="http://www.w3.org/2000/svg">
<path fill-rule="evenodd" clip-rule="evenodd" d="M16.4778 2.67426H19.5944L24.0095 12.1628H12.0447L16.4778 2.67426ZM8.49611 12.1628L12.9292 2.67426H8.60411C7.97336 2.69147 7.35544 2.85629 6.79991 3.15549C6.24438 3.45469 5.76672 3.87994 5.40525 4.39711L0.732964 10.872L0.725249 10.8823C0.4517 11.2727 0.248098 11.7078 0.123535 12.168H8.49611V12.1628ZM0.653249 15.3771H8.42925L13.369 31.2197L0.938678 15.7628C0.837716 15.6404 0.742471 15.5134 0.653249 15.3823V15.3771ZM11.7952 15.3771H24.259L18.2675 34.6705C18.1168 34.6789 17.9658 34.6806 17.815 34.6757L11.7978 15.3797L11.7952 15.3771ZM27.625 15.3771L22.7495 31.0705L35.0615 15.7603C35.1625 15.6379 35.2577 15.5109 35.347 15.3797L27.625 15.3771ZM35.8741 12.1628C35.7501 11.7037 35.5473 11.2696 35.275 10.8797L35.2673 10.8694L30.595 4.39968C30.2335 3.88251 29.7558 3.45726 29.2003 3.15806C28.6448 2.85886 28.0268 2.69404 27.3961 2.67683V2.67426H23.143L27.5555 12.1628H35.8741Z" fill="black"/>
</svg>
