<svg width="36" height="36" viewBox="0 0 36 36" fill="none" xmlns="http://www.w3.org/2000/svg">
<path d="M27.3187 1.51392C24.6464 3.66168 22.8545 6.16312 21.4159 8.80441C22.2964 9.34443 23.2 9.84599 24.124 10.3077L30.3638 12.7011C31.3269 12.967 32.3007 13.1928 33.2825 13.3779C34.2312 10.3609 34.6797 7.34338 34.6489 4.32656L27.3188 1.51406L27.3187 1.51392ZM8.55844 1.78673L9.62248 6.35472L14.4705 7.50644L13.557 2.96953L8.55844 1.78673ZM7.32136 2.26823L4.70384 5.61124L5.57276 9.97237L8.34968 6.6828L7.32136 2.26823ZM9.27486 7.62238L6.66668 10.714L10.3345 11.2567C10.8413 11.1091 11.3504 10.9692 11.8614 10.8371L13.8035 8.69908L9.27486 7.62238ZM21.2681 10.2483L21.8851 14.3905C22.3007 14.8166 22.7033 15.2523 23.0896 15.6994L29.3491 18.1011L32.5354 14.5701C28.6879 13.7896 24.9199 12.4031 21.268 10.2481L21.2681 10.2483ZM16.3399 11.1962C12.8718 11.8537 9.42568 12.7361 5.98817 14.1947C8.85868 16.6471 11.3915 19.2828 13.4404 22.1778L23.9314 19.0359C22.0658 16.0924 19.2906 13.6204 16.3397 11.1962L16.3399 11.1962ZM4.62045 14.755C3.17082 18.2905 1.97389 21.8754 1.70459 25.8065C3.42971 29.5255 6.64067 32.1785 9.49268 34.2243L12.4793 23.0833C10.3717 20.0702 7.69451 17.3218 4.62045 14.755ZM24.6848 20.1819L13.7386 23.4606L10.7752 34.5151C14.4432 33.9629 18.087 32.9771 21.7314 31.1218C23.4859 27.3587 23.8762 24.1097 24.6847 20.1821L24.6848 20.1819Z" fill="black"/>
</svg>
