<svg width="36" height="36" viewBox="0 0 36 36" fill="none" xmlns="http://www.w3.org/2000/svg">
<path fill-rule="evenodd" clip-rule="evenodd" d="M22.1271 3.98572H3.9985C2.97552 3.98572 1.99444 4.39209 1.27109 5.11545C0.547734 5.8388 0.141357 6.81988 0.141357 7.84286V12.9857C0.141848 13.2699 0.236491 13.5459 0.410491 13.7707C0.584491 13.9954 0.828041 14.1561 1.10307 14.2277C1.93517 14.448 2.67105 14.9372 3.19608 15.6193C3.72112 16.3014 4.00581 17.138 4.00581 17.9987C4.00581 18.8595 3.72112 19.696 3.19608 20.3781C2.67105 21.0602 1.93517 21.5495 1.10307 21.7697C0.828093 21.8419 0.584804 22.0032 0.411259 22.2284C0.237714 22.4536 0.143703 22.73 0.143929 23.0143V28.1546C0.143929 29.1776 0.550305 30.1586 1.27366 30.882C1.99701 31.6053 2.97809 32.0117 4.00107 32.0117H22.1296V27.6017C22.1296 27.1755 22.299 26.7667 22.6004 26.4653C22.9018 26.1639 23.3105 25.9946 23.7368 25.9946C24.163 25.9946 24.5718 26.1639 24.8732 26.4653C25.1746 26.7667 25.3439 27.1755 25.3439 27.6017V32.0117H31.9988C33.0218 32.0117 34.0028 31.6053 34.7262 30.882C35.4496 30.1586 35.8559 29.1776 35.8559 28.1546V23.004C35.8562 22.7215 35.7634 22.4468 35.5919 22.2223C35.4204 21.9978 35.1797 21.836 34.9071 21.762C34.0827 21.536 33.3554 21.0454 32.8369 20.3657C32.3185 19.686 32.0377 18.8548 32.0377 18C32.0377 17.1452 32.3185 16.314 32.8369 15.6343C33.3554 14.9546 34.0827 14.4641 34.9071 14.238C35.1802 14.1645 35.4214 14.0029 35.5934 13.7784C35.7654 13.5538 35.8586 13.2788 35.8585 12.996V7.84543C35.8585 6.82245 35.4521 5.84137 34.7288 5.11802C34.0054 4.39467 33.0243 3.98829 32.0014 3.98829H25.3414V8.41886C25.3414 8.8451 25.172 9.25388 24.8706 9.55528C24.5692 9.85668 24.1605 10.026 23.7342 10.026C23.308 10.026 22.8992 9.85668 22.5978 9.55528C22.2964 9.25388 22.1271 8.8451 22.1271 8.41886V3.98572ZM23.7342 13.7983C24.6239 13.7983 25.3414 14.5183 25.3414 15.4054V20.5894C25.3414 21.0157 25.172 21.4245 24.8706 21.7259C24.5692 22.0273 24.1605 22.1966 23.7342 22.1966C23.308 22.1966 22.8992 22.0273 22.5978 21.7259C22.2964 21.4245 22.1271 21.0157 22.1271 20.5894V15.4054C22.1271 14.5183 22.8471 13.7983 23.7342 13.7983Z" fill="black"/>
</svg>
