<svg width="36" height="36" viewBox="0 0 36 36" fill="none" xmlns="http://www.w3.org/2000/svg">
<path d="M18 31.5C18.42 31.5 18.8085 31.3095 19.587 30.927L25.845 27.861C28.6155 26.5035 30 25.824 30 24.75V11.25M18 31.5C17.58 31.5 17.1915 31.3095 16.413 30.927L10.155 27.861C7.3845 26.5035 6 25.824 6 24.75V11.25M18 31.5V18V31.5Z" fill="black"/>
<path d="M18 31.5C18.42 31.5 18.8085 31.3095 19.587 30.927L25.845 27.861C28.6155 26.5035 30 25.824 30 24.75V11.25M18 31.5C17.58 31.5 17.1915 31.3095 16.413 30.927L10.155 27.861C7.3845 26.5035 6 25.824 6 24.75V11.25M18 31.5V18" stroke="black" stroke-width="2" stroke-linecap="round" stroke-linejoin="round"/>
<path d="M16.413 5.073C17.193 4.6905 17.5815 4.5 18 4.5C18.42 4.5 18.8085 4.6905 19.587 5.073L25.845 8.139C28.6155 9.4965 30 10.176 30 11.25C30 12.324 28.6155 13.0035 25.845 14.361L19.587 17.427C18.807 17.8095 18.4185 18 18 18C17.58 18 17.1915 17.8095 16.413 17.427L10.155 14.361C7.3845 13.0035 6 12.324 6 11.25C6 10.176 7.3845 9.4965 10.155 8.139L16.413 5.073Z" fill="black" stroke="black" stroke-width="1.5" stroke-linecap="round" stroke-linejoin="round"/>
</svg>
