<svg width="36" height="36" viewBox="0 0 36 36" fill="none" xmlns="http://www.w3.org/2000/svg">
<path d="M27.3187 1.51318C24.6464 3.66095 22.8545 6.16239 21.4159 8.80368C22.2964 9.34369 23.2 9.84526 24.124 10.307L30.3638 12.7004C31.3269 12.9663 32.3007 13.1921 33.2825 13.3772C34.2312 10.3602 34.6797 7.34265 34.6489 4.32582L27.3188 1.51332L27.3187 1.51318ZM8.55844 1.786L9.62248 6.35399L14.4705 7.50571L13.557 2.96879L8.55844 1.786ZM7.32136 2.2675L4.70384 5.6105L5.57276 9.97164L8.34968 6.68207L7.32136 2.2675ZM9.27486 7.62165L6.66668 10.7133L10.3345 11.256C10.8413 11.1084 11.3504 10.9685 11.8614 10.8364L13.8035 8.69835L9.27486 7.62165ZM21.2681 10.2475L21.8851 14.3898C22.3007 14.8159 22.7033 15.2515 23.0896 15.6987L29.3491 18.1003L32.5354 14.5694C28.6879 13.7889 24.9199 12.4023 21.268 10.2474L21.2681 10.2475ZM16.3399 11.1955C12.8718 11.8529 9.42568 12.7353 5.98817 14.194C8.85868 16.6463 11.3915 19.2821 13.4404 22.1771L23.9314 19.0351C22.0658 16.0917 19.2906 13.6197 16.3397 11.1954L16.3399 11.1955ZM4.62045 14.7543C3.17082 18.2897 1.97389 21.8746 1.70459 25.8058C3.42971 29.5248 6.64067 32.1777 9.49268 34.2236L12.4793 23.0826C10.3717 20.0695 7.69451 17.3211 4.62045 14.7543ZM24.6848 20.1812L13.7386 23.4598L10.7752 34.5144C14.4432 33.9621 18.087 32.9764 21.7314 31.1211C23.4859 27.3579 23.8762 24.1089 24.6847 20.1814L24.6848 20.1812Z" fill="#F2E900"/>
</svg>
