<svg width="36" height="36" viewBox="0 0 36 36" fill="none" xmlns="http://www.w3.org/2000/svg">
<path d="M33.9701 17.2529C32.4788 10.5106 30.2344 6.91202 26.9051 5.92905C26.2053 5.72374 25.4793 5.62118 24.75 5.62459C23.786 5.62459 22.9465 5.85944 22.0585 6.10834C20.9883 6.40858 19.7726 6.74959 18 6.74959C16.2274 6.74959 15.011 6.40928 13.9388 6.10905C13.05 5.85944 12.2112 5.62459 11.25 5.62459C10.4959 5.62194 9.745 5.72417 9.01901 5.92834C5.70729 6.90709 3.46432 10.5043 1.95119 17.2487C0.324163 24.5063 1.12502 29.0886 4.19698 30.1517C4.61806 30.3002 5.06112 30.3767 5.5076 30.3781C7.61205 30.3781 9.29955 28.6252 10.4527 27.1901C11.7556 25.5659 13.2806 24.7419 18 24.7419C22.2153 24.7419 23.9597 25.3135 25.4665 27.1901C26.4136 28.37 27.3087 29.1955 28.2017 29.7151C29.3892 30.4055 30.5761 30.5588 31.7285 30.163C33.544 29.5435 34.5846 27.9059 34.8223 25.2945C35.003 23.292 34.7246 20.6616 33.9701 17.2529ZM14.625 16.8746H12.375V19.1246C12.375 19.423 12.2565 19.7091 12.0455 19.9201C11.8345 20.1311 11.5484 20.2496 11.25 20.2496C10.9517 20.2496 10.6655 20.1311 10.4545 19.9201C10.2435 19.7091 10.125 19.423 10.125 19.1246V16.8746H7.87502C7.57665 16.8746 7.29051 16.7561 7.07953 16.5451C6.86855 16.3341 6.75002 16.048 6.75002 15.7496C6.75002 15.4512 6.86855 15.1651 7.07953 14.9541C7.29051 14.7431 7.57665 14.6246 7.87502 14.6246H10.125V12.3746C10.125 12.0762 10.2435 11.7901 10.4545 11.5791C10.6655 11.3681 10.9517 11.2496 11.25 11.2496C11.5484 11.2496 11.8345 11.3681 12.0455 11.5791C12.2565 11.7901 12.375 12.0762 12.375 12.3746V14.6246H14.625C14.9234 14.6246 15.2095 14.7431 15.4205 14.9541C15.6315 15.1651 15.75 15.4512 15.75 15.7496C15.75 16.048 15.6315 16.3341 15.4205 16.5451C15.2095 16.7561 14.9234 16.8746 14.625 16.8746ZM20.5313 17.1558C20.2531 17.1558 19.9813 17.0734 19.75 16.9188C19.5187 16.7643 19.3385 16.5447 19.2321 16.2877C19.1256 16.0308 19.0978 15.748 19.152 15.4752C19.2063 15.2025 19.3402 14.9519 19.5369 14.7552C19.7336 14.5586 19.9841 14.4246 20.2569 14.3704C20.5297 14.3161 20.8125 14.344 21.0694 14.4504C21.3264 14.5568 21.546 14.7371 21.7005 14.9683C21.855 15.1996 21.9375 15.4715 21.9375 15.7496C21.9375 16.1226 21.7894 16.4802 21.5256 16.744C21.2619 17.0077 20.9042 17.1558 20.5313 17.1558ZM23.625 20.2496C23.3467 20.2496 23.0747 20.167 22.8434 20.0124C22.6121 19.8577 22.4318 19.6378 22.3255 19.3807C22.2192 19.1235 22.1915 18.8406 22.2461 18.5677C22.3006 18.2948 22.4349 18.0443 22.6319 17.8477C22.8289 17.6512 23.0798 17.5176 23.3528 17.4637C23.6259 17.4098 23.9087 17.4382 24.1656 17.5452C24.4225 17.6521 24.6419 17.8329 24.796 18.0646C24.9501 18.2964 25.032 18.5686 25.0313 18.8469C25.0303 19.2192 24.8818 19.576 24.6182 19.839C24.3545 20.1019 23.9974 20.2496 23.625 20.2496ZM23.625 14.0621C23.3469 14.0621 23.075 13.9796 22.8438 13.8251C22.6125 13.6706 22.4323 13.451 22.3258 13.194C22.2194 12.937 22.1915 12.6543 22.2458 12.3815C22.3001 12.1087 22.434 11.8581 22.6307 11.6615C22.8273 11.4648 23.0779 11.3309 23.3507 11.2766C23.6235 11.2224 23.9062 11.2502 24.1632 11.3566C24.4201 11.4631 24.6398 11.6433 24.7943 11.8746C24.9488 12.1058 25.0313 12.3777 25.0313 12.6558C25.0313 13.0288 24.8831 13.3865 24.6194 13.6502C24.3557 13.9139 23.998 14.0621 23.625 14.0621ZM26.7188 17.1558C26.4406 17.1558 26.1688 17.0734 25.9375 16.9188C25.7062 16.7643 25.526 16.5447 25.4196 16.2877C25.3131 16.0308 25.2853 15.748 25.3395 15.4752C25.3938 15.2025 25.5277 14.9519 25.7244 14.7552C25.9211 14.5586 26.1716 14.4246 26.4444 14.3704C26.7172 14.3161 27 14.344 27.2569 14.4504C27.5139 14.5568 27.7335 14.7371 27.888 14.9683C28.0425 15.1996 28.125 15.4715 28.125 15.7496C28.125 16.1226 27.9769 16.4802 27.7131 16.744C27.4494 17.0077 27.0917 17.1558 26.7188 17.1558Z" fill="#F2E900"/>
</svg>
