<svg width="36" height="36" viewBox="0 0 36 36" fill="none" xmlns="http://www.w3.org/2000/svg">
<path d="M12.6 14.3996C14.0322 14.3996 15.4057 13.8307 16.4184 12.818C17.4311 11.8053 18 10.4318 18 8.99961C18 7.56744 17.4311 6.19393 16.4184 5.18123C15.4057 4.16854 14.0322 3.59961 12.6 3.59961C11.1678 3.59961 9.79433 4.16854 8.78163 5.18123C7.76893 6.19393 7.20001 7.56744 7.20001 8.99961C7.20001 10.4318 7.76893 11.8053 8.78163 12.818C9.79433 13.8307 11.1678 14.3996 12.6 14.3996ZM26.1 16.1996C27.2935 16.1996 28.4381 15.7255 29.282 14.8816C30.1259 14.0377 30.6 12.8931 30.6 11.6996C30.6 10.5061 30.1259 9.36154 29.282 8.51763C28.4381 7.67372 27.2935 7.19961 26.1 7.19961C24.9065 7.19961 23.7619 7.67372 22.918 8.51763C22.0741 9.36154 21.6 10.5061 21.6 11.6996C21.6 12.8931 22.0741 14.0377 22.918 14.8816C23.7619 15.7255 24.9065 16.1996 26.1 16.1996ZM2.90701 29.57C2.55348 29.3507 2.26952 29.0355 2.0882 28.661C1.90688 28.2866 1.83565 27.8684 1.88281 27.455C2.21465 24.8469 3.48616 22.4493 5.45907 20.7115C7.43198 18.9737 9.97088 18.015 12.6 18.015C15.2291 18.015 17.768 18.9737 19.7409 20.7115C21.7139 22.4493 22.9854 24.8469 23.3172 27.455C23.4216 28.2956 23.0076 29.111 22.2912 29.5682C19.3992 31.4219 16.0351 32.4047 12.6 32.3996C9.16449 32.4056 5.79974 31.4233 2.90701 29.57ZM26.1 28.7996H25.9092C26.0352 28.265 26.0676 27.6998 25.9956 27.1202C25.688 24.6458 24.6983 22.3056 23.1372 20.3612C24.1418 19.9654 25.2153 19.7744 26.2948 19.7995C27.3742 19.8246 28.4378 20.0653 29.4229 20.5073C30.408 20.9494 31.2947 21.584 32.031 22.3737C32.7673 23.1634 33.3383 24.0924 33.7104 25.106C33.8241 25.4295 33.8217 25.7826 33.7034 26.1045C33.5852 26.4264 33.3585 26.697 33.0624 26.87C30.9611 28.1364 28.5534 28.8036 26.1 28.7996Z" fill="#F2E900"/>
</svg>
