<svg width="36" height="36" viewBox="0 0 36 36" fill="none" xmlns="http://www.w3.org/2000/svg">
<path d="M31.0008 9.5837C31.0432 9.55893 31.0785 9.52347 31.1029 9.48085C31.1274 9.43822 31.1403 9.38993 31.1403 9.34077C31.1403 9.29162 31.1274 9.24333 31.1029 9.2007C31.0785 9.15808 31.0432 9.12261 31.0008 9.09784L20.2613 2.85831C19.5741 2.46001 18.7939 2.25024 17.9997 2.25024C17.2054 2.25024 16.4252 2.46001 15.7381 2.85831L5.00063 9.09784C4.95817 9.12261 4.92295 9.15808 4.89847 9.2007C4.87399 9.24333 4.86111 9.29162 4.86111 9.34077C4.86111 9.38993 4.87399 9.43822 4.89847 9.48085C4.92295 9.52347 4.95817 9.55893 5.00063 9.5837L17.8594 17.1479C17.9026 17.1734 17.9519 17.1868 18.0021 17.1868C18.0523 17.1868 18.1016 17.1734 18.1448 17.1479L31.0008 9.5837ZM3.79688 11.4969C3.75399 11.4721 3.70532 11.4591 3.6558 11.4592C3.60627 11.4593 3.55765 11.4725 3.51484 11.4974C3.47203 11.5223 3.43655 11.558 3.412 11.601C3.38745 11.644 3.37468 11.6928 3.37501 11.7423V23.9689C3.37607 24.5581 3.53136 25.1368 3.82544 25.6474C4.11951 26.1579 4.54213 26.5826 5.05126 26.8792L16.4531 33.7157C16.4959 33.7403 16.5443 33.7533 16.5937 33.7533C16.643 33.7533 16.6915 33.7404 16.7343 33.7157C16.777 33.6911 16.8125 33.6556 16.8372 33.6129C16.8619 33.5702 16.875 33.5217 16.875 33.4724V19.2868C16.875 19.2375 16.8619 19.1891 16.8373 19.1464C16.8126 19.1037 16.7771 19.0682 16.7344 19.0435L3.79688 11.4969ZM19.125 19.336V33.4689C19.1251 33.5182 19.1381 33.5667 19.1628 33.6094C19.1875 33.6521 19.223 33.6876 19.2658 33.7122C19.3085 33.7369 19.357 33.7498 19.4063 33.7498C19.4557 33.7498 19.5041 33.7368 19.5469 33.7121L30.9481 26.8757C31.4568 26.5795 31.8792 26.1554 32.1734 25.6455C32.4676 25.1356 32.6233 24.5576 32.625 23.9689V11.7423C32.6248 11.693 32.6117 11.6446 32.587 11.602C32.5622 11.5594 32.5267 11.524 32.484 11.4995C32.4412 11.4749 32.3928 11.462 32.3435 11.462C32.2942 11.4621 32.2458 11.4751 32.2031 11.4997L19.2656 19.0935C19.223 19.1181 19.1876 19.1534 19.1629 19.196C19.1383 19.2386 19.1252 19.2868 19.125 19.336Z" fill="black"/>
</svg>
