<svg width="36" height="36" viewBox="0 0 36 36" fill="none" xmlns="http://www.w3.org/2000/svg">
<path d="M18 2.99951C9.7155 2.99951 3 9.71501 3 17.9995C3 26.284 9.7155 32.9995 18 32.9995C26.2845 32.9995 33 26.284 33 17.9995C33 9.71501 26.2845 2.99951 18 2.99951ZM18 29.9995L21 26.9995L22.5 25.4995V22.4995H19.5V20.9995L18 19.4995H13.5V23.9995L16.5 26.9995V29.896C10.59 29.1535 6 24.1075 6 17.9995L7.5 19.4995H10.5V16.4995H13.5L18 11.9995V8.99951H15L13.5 7.49951V6.88301C16.3848 5.70748 19.6152 5.70748 22.5 6.88301V8.99951L21 10.4995V13.4995L22.5 14.9995L27.195 10.3045C28.3364 11.6714 29.1593 13.2752 29.604 14.9995H27L24 17.9995V20.9995L25.5 22.4995H28.5L28.929 22.9285C27.0435 27.091 22.8585 29.9995 18 29.9995Z" fill="#F2E900"/>
</svg>
