<svg width="36" height="36" viewBox="0 0 36 36" fill="none" xmlns="http://www.w3.org/2000/svg">
<path fill-rule="evenodd" clip-rule="evenodd" d="M10.902 6.9871C15.6256 6.57689 20.3759 6.57689 25.0995 6.9871L27.3645 7.1851C28.4174 7.2773 29.4086 7.72092 30.1788 8.44462C30.9491 9.16832 31.4535 10.13 31.611 11.1751C32.2914 15.6997 32.2914 20.3005 31.611 24.8251C31.55 25.2221 31.444 25.5991 31.293 25.9561C31.194 26.1916 30.888 26.2276 30.714 26.0386L24.0825 18.7426C23.9359 18.5813 23.7455 18.4661 23.5346 18.411C23.3237 18.3559 23.1013 18.3632 22.8945 18.4321L19.098 19.6981L13.5915 13.5031C13.4897 13.3885 13.3655 13.2959 13.2265 13.2311C13.0876 13.1662 12.9369 13.1304 12.7836 13.126C12.6304 13.1215 12.4778 13.1483 12.3353 13.2049C12.1928 13.2615 12.0634 13.3467 11.955 13.4551L4.58402 20.8261C4.53395 20.8776 4.46994 20.9133 4.39985 20.9289C4.32977 20.9446 4.25664 20.9394 4.18944 20.9141C4.12224 20.8888 4.06389 20.8444 4.02154 20.7864C3.97919 20.7284 3.95469 20.6593 3.95102 20.5876C3.77364 17.4429 3.92041 14.2883 4.38902 11.1736C4.54655 10.1285 5.05099 9.16682 5.82122 8.44312C6.59144 7.71942 7.58268 7.2758 8.63552 7.1836L10.902 6.9871ZM21 13.5001C21 12.9034 21.2371 12.3311 21.659 11.9091C22.081 11.4872 22.6533 11.2501 23.25 11.2501C23.8468 11.2501 24.4191 11.4872 24.841 11.9091C25.263 12.3311 25.5 12.9034 25.5 13.5001C25.5 14.0968 25.263 14.6691 24.841 15.0911C24.4191 15.5131 23.8468 15.7501 23.25 15.7501C22.6533 15.7501 22.081 15.5131 21.659 15.0911C21.2371 14.6691 21 14.0968 21 13.5001Z" fill="black"/>
<path d="M4.44152 24.1499C4.401 24.1908 4.37046 24.2405 4.35225 24.2952C4.33404 24.3498 4.32866 24.4079 4.33652 24.4649L4.38902 24.8249C4.54655 25.87 5.05099 26.8317 5.82121 27.5554C6.59143 28.2791 7.58267 28.7227 8.63552 28.8149L10.9005 29.0114C15.6255 29.4224 20.3745 29.4224 25.0995 29.0114L27.3645 28.8149C27.9859 28.7624 28.5904 28.5853 29.142 28.2944C29.3475 28.1879 29.382 27.9164 29.226 27.7454L23.076 20.9804C23.0272 20.9261 22.9636 20.8872 22.8929 20.8686C22.8223 20.8499 22.7478 20.8523 22.6785 20.8754L19.1055 22.0664C18.8966 22.1362 18.6719 22.1431 18.4591 22.0863C18.2463 22.0295 18.0549 21.9115 17.9085 21.7469L12.966 16.1864C12.932 16.1482 12.8905 16.1174 12.8441 16.0958C12.7977 16.0742 12.7474 16.0623 12.6963 16.0609C12.6451 16.0595 12.5942 16.0686 12.5467 16.0876C12.4992 16.1066 12.4561 16.1351 12.42 16.1714L4.44152 24.1499Z" fill="black"/>
</svg>
