<svg width="36" height="36" viewBox="0 0 36 36" fill="none" xmlns="http://www.w3.org/2000/svg">
<path d="M14.808 3.12081L14.3158 2.81214C13.3525 2.22151 12.1502 1.87839 11.1166 2.20042C10.0057 2.54636 9.11972 3.40206 8.65566 4.68737L7.99472 4.34706C6.85566 3.76065 6.25941 3.75151 5.76511 3.9737C5.37066 4.15019 4.95933 4.57487 4.49316 5.19503L10.2869 9.67464C11.1939 9.96995 12.5228 9.96292 13.8517 9.61839C15.1877 9.27386 16.5166 8.59886 17.4869 7.69183L19.6736 2.28479C17.7471 0.762529 15.9892 1.64425 14.808 3.12081ZM18.5416 8.50042C17.3463 9.70979 15.5674 10.5254 14.1822 10.891C13.6971 11.0176 13.2119 11.109 12.7408 11.1582C12.4807 11.5871 12.2627 12.0231 12.0939 12.459C12.4314 14.1746 13.0642 15.5809 14.0135 16.734L13.001 17.5778C12.4174 16.8746 11.8971 16.1153 11.5033 15.2715C11.44 16.9028 11.8057 18.5903 12.4033 20.3481L11.1588 20.7699C10.0619 17.5637 9.68925 14.2801 11.2291 11.1864C10.7088 11.1442 10.2166 11.0457 9.75956 10.884L9.73847 10.877C9.43612 11.1653 9.14784 11.4676 8.87362 11.784C6.65386 14.3575 5.43112 17.7817 6.07097 20.4465C6.41339 21.8739 7.02722 23.2239 7.91034 24.377C9.20409 24.3489 10.4275 24.377 11.5385 24.7989C12.0658 24.7426 12.6072 24.7074 13.1697 24.7074C15.1736 24.7074 16.9877 25.0801 18.3588 25.727C18.8932 25.9801 19.3783 26.2825 19.765 26.627C19.765 26.2543 19.8213 25.8535 19.9338 25.5582C19.308 24.9676 18.9142 24.2504 18.9142 23.4348C18.9142 22.3028 19.6666 21.3676 20.7564 20.6926C20.7564 20.3692 20.8197 20.0598 20.9322 19.7645C20.2221 19.1528 19.765 18.3934 19.765 17.5075C19.765 16.952 19.9478 16.4457 20.2572 15.9887C19.9478 15.5387 19.765 15.0325 19.765 14.477C19.765 14.2028 19.8072 13.9496 19.8846 13.7035C19.2025 13.0989 18.7736 12.3535 18.7736 11.4957C18.7736 10.645 19.1955 9.90667 19.8705 9.30901C19.4557 8.98558 19.0127 8.71136 18.5416 8.50042ZM26.3744 8.66214C24.5463 8.66214 22.8939 9.04886 21.7619 9.61839C20.6228 10.1879 20.0885 10.891 20.0885 11.4957C20.0885 12.1075 20.6228 12.8106 21.7619 13.3801C22.8939 13.9496 24.5463 14.3364 26.3744 14.3364C27.1689 14.3364 27.9213 14.259 28.6174 14.1325V12.9371C29.5947 12.7895 30.4033 12.5223 30.9236 12.1778V13.4153C31.8025 13.1621 32.6463 12.227 32.6674 11.4957C32.6674 10.891 32.133 10.1879 30.9939 9.61839C29.8549 9.04886 28.2096 8.66214 26.3744 8.66214ZM33.1596 13.4223C32.9275 13.6684 32.6533 13.9004 32.3439 14.1114L32.358 16.1504C33.2439 15.6231 33.6588 15.0114 33.6588 14.477C33.6588 14.1395 33.4971 13.7739 33.1596 13.4223ZM21.0799 14.5051C21.101 15.1098 21.6353 15.7918 22.7533 16.3543C23.8924 16.9309 25.5377 17.3106 27.3728 17.3106C28.5189 17.3106 29.5947 17.1559 30.5158 16.9028L30.565 14.9903C29.3557 15.4121 27.9213 15.6442 26.3744 15.6442C24.3705 15.6442 22.5494 15.2434 21.1713 14.5543C21.1361 14.5403 21.108 14.5192 21.0799 14.5051ZM21.2205 16.952C21.1221 17.1418 21.0799 17.3317 21.0799 17.5075C21.0799 18.1192 21.6143 18.8223 22.7533 19.3918C23.8924 19.9614 25.5377 20.341 27.3728 20.341C28.301 20.341 29.1799 20.2496 29.9744 20.0739V18.3864C29.1588 18.541 28.2869 18.6184 27.3728 18.6184C25.3619 18.6184 23.5408 18.2246 22.1627 17.5285C21.8182 17.3598 21.5017 17.1629 21.2205 16.952ZM33.5182 16.952C33.0893 17.2543 32.7166 17.4793 32.2807 17.6692V19.2371C33.2158 18.6957 33.6588 18.0629 33.6588 17.5075C33.6588 17.3317 33.6166 17.1418 33.5182 16.952ZM34.0455 19.5395C33.9049 19.6801 33.7502 19.8137 33.5814 19.9473V22.2254C34.3057 21.7332 34.6572 21.1918 34.6572 20.6996C34.6572 20.327 34.4533 19.9262 34.0455 19.5395ZM22.0853 20.5239C22.0783 20.5871 22.0713 20.6434 22.0713 20.6996C22.0713 21.3114 22.6057 22.0075 23.7447 22.577C24.8838 23.1535 26.5361 23.5332 28.3642 23.5332C29.4119 23.5332 30.4103 23.4067 31.2752 23.1957V21.0934C30.1291 21.459 28.8002 21.6559 27.3728 21.6559C25.3619 21.6559 23.5408 21.2551 22.1627 20.566C22.1346 20.552 22.1135 20.5379 22.0853 20.5239ZM21.1291 22.0285C20.5174 22.4856 20.2291 22.9848 20.2291 23.4348C20.2291 24.0465 20.7635 24.7426 21.9025 25.3192C23.0416 25.8887 24.6869 26.2684 26.5221 26.2684C27.19 26.2684 27.8369 26.2192 28.4416 26.1278V24.8481H28.3642C26.3533 24.8481 24.5322 24.4473 23.1541 23.7512C22.2752 23.3153 21.5439 22.7317 21.1291 22.0285ZM32.5549 24.1801C31.9994 24.377 31.3947 24.5387 30.7478 24.6442V25.495C30.8814 25.4387 31.015 25.3825 31.1416 25.3192C31.8307 24.9676 32.2947 24.5739 32.5549 24.1801ZM33.2017 25.4598C32.9346 25.727 32.6252 25.966 32.2807 26.184V28.195C33.2158 27.6606 33.6588 27.0278 33.6588 26.4723C33.6588 26.1489 33.5111 25.7973 33.2017 25.4598ZM8.68378 25.6567C7.96659 25.6637 7.19316 25.7551 6.39159 25.945C4.78777 26.3176 3.40894 26.9996 2.50894 27.752C1.60894 28.4973 1.25737 29.2567 1.36284 29.7981C1.46831 30.3395 2.02378 30.8387 3.10659 31.127C4.18589 31.4082 5.6955 31.4223 7.29862 31.0496C7.9455 30.895 8.55019 30.6981 9.10566 30.466V29.0106C10.1322 28.5535 10.8986 28.0051 11.2432 27.4707V29.1864C12.0939 28.4551 12.4244 27.7239 12.326 27.1895C12.2275 26.6481 11.665 26.1489 10.5822 25.8676C10.0408 25.727 9.39394 25.6496 8.68378 25.6567ZM13.226 26.0223C13.4158 26.2965 13.5494 26.6059 13.6197 26.9504C13.6971 27.3723 13.6619 27.7801 13.5353 28.1809C14.2314 28.3637 14.8642 28.6098 15.4127 28.9192C15.7221 29.0879 16.0103 29.2918 16.2635 29.5028C16.8963 29.3551 17.4307 29.1442 17.8103 28.891V30.3395C18.9424 29.8051 19.4627 29.1512 19.4627 28.6309C19.4627 28.1035 18.9424 27.4496 17.8033 26.9153C16.6713 26.3879 15.04 26.0293 13.226 26.0223ZM21.0869 26.3739C21.0799 26.402 21.0799 26.4371 21.0799 26.4723C21.0799 27.084 21.6143 27.7801 22.7533 28.3567C23.8924 28.9262 25.5377 29.3059 27.3728 29.3059C28.301 29.3059 29.1799 29.2075 29.9744 29.0387V27.1473C28.9338 27.4285 27.7596 27.5832 26.5221 27.5832C24.5111 27.5832 22.69 27.1824 21.3119 26.4934C21.2346 26.4512 21.1572 26.409 21.0869 26.3739ZM21.2838 28.9965C21.1432 29.2285 21.0799 29.4535 21.0799 29.6715C21.0799 30.2832 21.6143 30.9793 22.7533 31.5559C23.8924 32.1254 25.5377 32.5051 27.3728 32.5051C28.301 32.5051 29.1799 32.4067 29.9744 32.2379V30.3817C29.1588 30.5364 28.2869 30.6207 27.3728 30.6207C25.3619 30.6207 23.5408 30.2199 22.1627 29.5239C21.8463 29.3692 21.551 29.1934 21.2838 28.9965ZM33.4549 28.9965C33.0471 29.2707 32.6885 29.4887 32.2807 29.6645V31.3942C33.2158 30.8598 33.6588 30.227 33.6588 29.6715C33.6588 29.4535 33.5955 29.2285 33.4549 28.9965ZM12.8814 29.3762C12.6353 29.6856 12.3471 29.9809 12.0236 30.2481C10.9267 31.1692 9.37987 31.9145 7.59394 32.3293C6.95691 32.477 6.32409 32.5684 5.71659 32.6176C5.94159 32.9903 6.33745 33.3559 6.91683 33.6793C7.87519 34.2207 9.28144 34.5864 10.8424 34.5864C11.5525 34.5864 12.2275 34.509 12.8463 34.3754V32.9129C13.8166 32.7653 14.6322 32.4981 15.1525 32.1535V33.4473C15.8557 32.9551 16.1932 32.3996 16.1932 31.8723C16.1932 31.2606 15.7361 30.6067 14.7728 30.0653C14.2525 29.777 13.6057 29.5379 12.8814 29.3762Z" fill="#F2E900"/>
</svg>
