<svg width="36" height="37" viewBox="0 0 36 37" fill="none" xmlns="http://www.w3.org/2000/svg">
<path d="M31.0008 10.3375C31.0432 10.3127 31.0785 10.2773 31.1029 10.2346C31.1274 10.192 31.1403 10.1437 31.1403 10.0946C31.1403 10.0454 31.1274 9.99711 31.1029 9.95449C31.0785 9.91186 31.0432 9.8764 31.0008 9.85163L20.2613 3.6121C19.5741 3.21379 18.7939 3.00403 17.9997 3.00403C17.2054 3.00403 16.4252 3.21379 15.7381 3.6121L5.00063 9.85163C4.95817 9.8764 4.92295 9.91186 4.89847 9.95449C4.87399 9.99711 4.86111 10.0454 4.86111 10.0946C4.86111 10.1437 4.87399 10.192 4.89847 10.2346C4.92295 10.2773 4.95817 10.3127 5.00063 10.3375L17.8594 17.9017C17.9026 17.9272 17.9519 17.9406 18.0021 17.9406C18.0523 17.9406 18.1016 17.9272 18.1448 17.9017L31.0008 10.3375ZM3.79688 12.2507C3.75399 12.2259 3.70532 12.2129 3.6558 12.213C3.60627 12.2131 3.55765 12.2262 3.51484 12.2511C3.47203 12.276 3.43655 12.3118 3.412 12.3548C3.38745 12.3978 3.37468 12.4466 3.37501 12.4961V24.7227C3.37607 25.3119 3.53136 25.8906 3.82544 26.4011C4.11951 26.9117 4.54213 27.3364 5.05126 27.633L16.4531 34.4694C16.4959 34.4941 16.5443 34.5071 16.5937 34.5071C16.643 34.5071 16.6915 34.4942 16.7343 34.4695C16.777 34.4449 16.8125 34.4094 16.8372 34.3667C16.8619 34.324 16.875 34.2755 16.875 34.2262V20.0406C16.875 19.9913 16.8619 19.9429 16.8373 19.9002C16.8126 19.8575 16.7771 19.822 16.7344 19.7973L3.79688 12.2507ZM19.125 20.0898V34.2226C19.1251 34.272 19.1381 34.3205 19.1628 34.3632C19.1875 34.4059 19.223 34.4413 19.2658 34.466C19.3085 34.4906 19.357 34.5036 19.4063 34.5036C19.4557 34.5036 19.5041 34.4906 19.5469 34.4659L30.9481 27.6294C31.4568 27.3333 31.8792 26.9092 32.1734 26.3993C32.4676 25.8894 32.6233 25.3114 32.625 24.7227V12.4961C32.6248 12.4468 32.6117 12.3984 32.587 12.3558C32.5622 12.3132 32.5267 12.2778 32.484 12.2533C32.4412 12.2287 32.3928 12.2158 32.3435 12.2158C32.2942 12.2159 32.2458 12.2289 32.2031 12.2535L19.2656 19.8473C19.223 19.8719 19.1876 19.9072 19.1629 19.9498C19.1383 19.9923 19.1252 20.0406 19.125 20.0898Z" fill="#F2E900"/>
</svg>
