<svg width="80" height="80" viewBox="0 0 80 80" fill="none" xmlns="http://www.w3.org/2000/svg">
<rect width="80" height="80" rx="12" fill="white" fill-opacity="0.46"/>
<g clip-path="url(#clip0_2_2566)">
<path d="M57.0391 20H22.9531C21.3203 20 20 21.2891 20 22.8828V57.1094C20 58.7031 21.3203 60 22.9531 60H57.0391C58.6719 60 60 58.7031 60 57.1172V22.8828C60 21.2891 58.6719 20 57.0391 20ZM31.8672 54.0859H25.9297V34.9922H31.8672V54.0859ZM28.8984 32.3906C26.9922 32.3906 25.4531 30.8516 25.4531 28.9531C25.4531 27.0547 26.9922 25.5156 28.8984 25.5156C30.7969 25.5156 32.3359 27.0547 32.3359 28.9531C32.3359 30.8438 30.7969 32.3906 28.8984 32.3906ZM54.0859 54.0859H48.1562V44.8047C48.1562 42.5938 48.1172 39.7422 45.0703 39.7422C41.9844 39.7422 41.5156 42.1562 41.5156 44.6484V54.0859H35.5938V34.9922H41.2812V37.6016H41.3594C42.1484 36.1016 44.0859 34.5156 46.9688 34.5156C52.9766 34.5156 54.0859 38.4688 54.0859 43.6094V54.0859Z" fill="url(#paint0_linear_2_2566)"/>
</g>
<defs>
<linearGradient id="paint0_linear_2_2566" x1="40" y1="20" x2="40" y2="60" gradientUnits="userSpaceOnUse">
<stop/>
<stop offset="1"/>
</linearGradient>
<clipPath id="clip0_2_2566">
<rect width="40" height="40" fill="white" transform="translate(20 20)"/>
</clipPath>
</defs>
</svg>
