<svg width="36" height="37" viewBox="0 0 36 37" fill="none" xmlns="http://www.w3.org/2000/svg">
<path fill-rule="evenodd" clip-rule="evenodd" d="M18.0293 5.25391C14.6415 5.25391 11.5553 6.37291 9.72905 7.28716C9.56405 7.36966 9.41005 7.45016 9.26705 7.52866C8.98355 7.68316 8.74205 7.82716 8.55005 7.95391L10.6275 11.0124L11.6055 11.4017C15.4275 13.3299 20.553 13.3299 24.3758 11.4017L25.4858 10.8257L27.45 7.95391C27.0427 7.68924 26.6197 7.44955 26.1833 7.23616C24.366 6.33166 21.3533 5.25391 18.03 5.25391M13.1985 8.71591C12.4631 8.57749 11.7365 8.39517 11.0228 8.16991C12.7335 7.41016 15.2828 6.60391 18.03 6.60391C19.9328 6.60391 21.732 6.99091 23.22 7.48141C21.4763 7.72666 19.6155 8.14291 17.8425 8.65516C16.4475 9.05866 14.817 9.01516 13.1985 8.71591ZM25.1685 12.5139L24.984 12.6069C20.7795 14.7279 15.2025 14.7279 10.998 12.6069L10.8233 12.5184C4.50605 19.4492 -0.316453 32.2517 18.0293 32.2517C36.375 32.2517 31.4355 19.2114 25.1685 12.5139ZM17.25 18.7539C16.8522 18.7539 16.4707 18.9119 16.1894 19.1932C15.9081 19.4746 15.75 19.8561 15.75 20.2539C15.75 20.6517 15.9081 21.0333 16.1894 21.3146C16.4707 21.5959 16.8522 21.7539 17.25 21.7539V18.7539ZM18.75 17.2539V16.5039H17.25V17.2539C16.4544 17.2539 15.6913 17.57 15.1287 18.1326C14.5661 18.6952 14.25 19.4583 14.25 20.2539C14.25 21.0496 14.5661 21.8126 15.1287 22.3752C15.6913 22.9378 16.4544 23.2539 17.25 23.2539V26.2539C16.5975 26.2539 16.0418 25.8377 15.8348 25.2542C15.8041 25.1587 15.7545 25.0704 15.6891 24.9944C15.6236 24.9184 15.5436 24.8563 15.4538 24.8118C15.3639 24.7673 15.266 24.7412 15.1659 24.7352C15.0658 24.7292 14.9655 24.7433 14.871 24.7767C14.7764 24.8101 14.6895 24.8621 14.6154 24.9297C14.5413 24.9973 14.4816 25.079 14.4396 25.1701C14.3977 25.2612 14.3744 25.3598 14.3712 25.46C14.368 25.5602 14.385 25.6601 14.421 25.7537C14.6278 26.3387 15.0109 26.8452 15.5176 27.2035C16.0243 27.5617 16.6295 27.754 17.25 27.7539V28.5039H18.75V27.7539C19.5457 27.7539 20.3088 27.4378 20.8714 26.8752C21.434 26.3126 21.75 25.5496 21.75 24.7539C21.75 23.9583 21.434 23.1952 20.8714 22.6326C20.3088 22.07 19.5457 21.7539 18.75 21.7539V18.7539C19.4025 18.7539 19.9583 19.1702 20.1653 19.7537C20.196 19.8491 20.2456 19.9375 20.311 20.0134C20.3764 20.0894 20.4565 20.1515 20.5463 20.196C20.6362 20.2405 20.7341 20.2666 20.8342 20.2726C20.9343 20.2786 21.0346 20.2645 21.1291 20.2311C21.2237 20.1977 21.3106 20.1457 21.3847 20.0781C21.4587 20.0105 21.5185 19.9288 21.5605 19.8377C21.6024 19.7466 21.6257 19.648 21.6289 19.5478C21.6321 19.4476 21.6151 19.3477 21.579 19.2542C21.3723 18.6691 20.9892 18.1626 20.4825 17.8044C19.9758 17.4461 19.3706 17.2538 18.75 17.2539ZM18.75 23.2539V26.2539C19.1479 26.2539 19.5294 26.0959 19.8107 25.8146C20.092 25.5333 20.25 25.1517 20.25 24.7539C20.25 24.3561 20.092 23.9746 19.8107 23.6932C19.5294 23.4119 19.1479 23.2539 18.75 23.2539Z" fill="#F2E900"/>
</svg>
