<svg width="36" height="37" viewBox="0 0 36 37" fill="none" xmlns="http://www.w3.org/2000/svg">
<path fill-rule="evenodd" clip-rule="evenodd" d="M22.1273 4.73962H3.99874C2.97577 4.73962 1.99469 5.146 1.27133 5.86936C0.547978 6.59271 0.141602 7.57379 0.141602 8.59677V13.7396C0.142093 14.0238 0.236735 14.2999 0.410735 14.5246C0.584735 14.7493 0.828285 14.91 1.10332 14.9816C1.93541 15.2019 2.6713 15.6911 3.19633 16.3732C3.72136 17.0553 4.00605 17.8919 4.00605 18.7526C4.00605 19.6134 3.72136 20.45 3.19633 21.132C2.6713 21.8141 1.93541 22.3034 1.10332 22.5236C0.828337 22.5958 0.585048 22.7572 0.411503 22.9823C0.237959 23.2075 0.143947 23.4839 0.144173 23.7682V28.9085C0.144173 29.9315 0.550549 30.9125 1.2739 31.6359C1.99726 32.3592 2.97834 32.7656 4.00132 32.7656H22.1299V28.3556C22.1299 27.9294 22.2992 27.5206 22.6006 27.2192C22.902 26.9178 23.3108 26.7485 23.737 26.7485C24.1633 26.7485 24.5721 26.9178 24.8735 27.2192C25.1748 27.5206 25.3442 27.9294 25.3442 28.3556V32.7656H31.999C33.022 32.7656 34.0031 32.3592 34.7264 31.6359C35.4498 30.9125 35.8562 29.9315 35.8562 28.9085V23.7579C35.8564 23.4754 35.7636 23.2007 35.5921 22.9762C35.4206 22.7517 35.18 22.5899 34.9073 22.5159C34.0829 22.2899 33.3556 21.7993 32.8372 21.1196C32.3188 20.4399 32.038 19.6087 32.038 18.7539C32.038 17.8991 32.3188 17.0679 32.8372 16.3882C33.3556 15.7085 34.0829 15.218 34.9073 14.9919C35.1804 14.9184 35.4217 14.7568 35.5937 14.5323C35.7657 14.3077 35.8589 14.0328 35.8587 13.7499V8.59934C35.8587 7.57636 35.4524 6.59528 34.729 5.87193C34.0057 5.14857 33.0246 4.7422 32.0016 4.7422H25.3416V9.17277C25.3416 9.59901 25.1723 10.0078 24.8709 10.3092C24.5695 10.6106 24.1607 10.7799 23.7345 10.7799C23.3082 10.7799 22.8994 10.6106 22.598 10.3092C22.2966 10.0078 22.1273 9.59901 22.1273 9.17277V4.73962ZM23.7345 14.5522C24.6242 14.5522 25.3416 15.2722 25.3416 16.1593V21.3433C25.3416 21.7696 25.1723 22.1784 24.8709 22.4798C24.5695 22.7812 24.1607 22.9505 23.7345 22.9505C23.3082 22.9505 22.8994 22.7812 22.598 22.4798C22.2966 22.1784 22.1273 21.7696 22.1273 21.3433V16.1593C22.1273 15.2722 22.8473 14.5522 23.7345 14.5522Z" fill="#F2E900"/>
</svg>
